<?xml version="1.0" standalone="no"?>
<!DOCTYPE svg PUBLIC "-//W3C//DTD SVG 20010904//EN"
 "http://www.w3.org/TR/2001/REC-SVG-20010904/DTD/svg10.dtd">
<svg version="1.0" xmlns="http://www.w3.org/2000/svg"
 width="1177.000000pt" height="1280.000000pt" viewBox="0 0 1177.000000 1280.000000"
 preserveAspectRatio="xMidYMid meet">
<metadata>
Created by potrace 1.15, written by Peter Selinger 2001-2017
</metadata>
<g transform="translate(0.000000,1280.000000) scale(0.100000,-0.100000)"
fill="#000000" stroke="none">
<path d="M8515 12795 c-5 -2 -93 -14 -195 -25 -419 -47 -654 -106 -942 -236
-226 -102 -343 -189 -613 -454 -133 -131 -311 -290 -485 -435 -342 -284 -385
-326 -580 -556 -118 -139 -164 -200 -182 -245 -13 -32 -53 -102 -88 -154 -62
-92 -64 -97 -62 -153 2 -61 -10 -95 -54 -154 -30 -40 -30 -47 1 -39 14 4 25 4
25 1 0 -3 -30 -43 -67 -88 -139 -170 -212 -297 -473 -812 -239 -472 -281 -584
-404 -1064 -64 -246 -67 -255 -127 -354 -34 -56 -86 -129 -117 -162 -129 -139
-223 -295 -283 -468 -23 -64 -26 -68 -64 -77 -130 -33 -405 -154 -548 -241
-55 -34 -127 -72 -160 -85 -33 -13 -70 -32 -81 -42 -12 -11 -70 -31 -131 -47
-186 -47 -546 -177 -895 -322 -85 -36 -211 -87 -280 -113 -69 -26 -192 -77
-275 -112 -278 -121 -590 -260 -645 -288 -30 -15 -79 -35 -107 -44 -32 -11
-62 -29 -75 -46 -13 -16 -61 -47 -107 -69 -96 -47 -121 -66 -121 -92 0 -18 14
-25 70 -32 22 -2 18 -6 -30 -31 -89 -46 -130 -75 -130 -91 0 -18 32 -20 62 -4
11 6 22 8 25 6 2 -3 -32 -27 -78 -54 -126 -74 -164 -139 -59 -102 30 10 68 19
84 19 16 0 245 81 508 180 263 99 486 180 495 180 32 0 -2 -17 -122 -60 -280
-99 -401 -156 -789 -368 -261 -143 -328 -190 -307 -216 10 -12 7 -18 -19 -31
-17 -9 -36 -27 -42 -40 -6 -14 -19 -27 -30 -30 -29 -10 -22 -35 10 -35 38 0
512 125 997 262 352 99 1322 438 1779 622 127 51 138 53 131 33 -17 -55 -17
-67 -1 -73 23 -9 67 22 59 42 -4 12 -2 15 8 12 10 -4 13 -19 11 -52 -4 -58 15
-69 58 -32 35 29 52 26 69 -10 8 -18 17 -24 29 -20 13 4 23 -4 36 -29 10 -18
29 -44 42 -56 31 -29 30 -56 -1 -115 -34 -64 -33 -92 5 -106 l30 -10 -20 -33
c-35 -57 -26 -75 45 -85 33 -4 39 -9 37 -25 -1 -11 -43 -101 -92 -200 -100
-204 -126 -264 -181 -420 -22 -60 -45 -121 -52 -135 -6 -14 -58 -73 -114 -131
-108 -113 -108 -112 -116 -233 -2 -39 -1 -40 47 -60 l48 -21 77 41 c116 62
609 380 813 525 189 134 202 141 358 184 140 38 304 106 487 201 90 46 165 84
168 84 8 0 260 -224 355 -315 96 -92 144 -127 248 -179 39 -20 72 -38 72 -40
0 -2 -16 -4 -36 -4 -45 0 -74 -25 -58 -50 14 -21 190 -88 259 -97 39 -6 57
-15 80 -40 27 -29 39 -34 100 -40 100 -10 126 -20 162 -68 81 -109 119 -197
288 -672 253 -711 538 -1468 625 -1655 83 -179 104 -238 125 -340 18 -89 39
-141 95 -228 18 -29 31 -55 28 -57 -5 -5 -308 95 -407 134 -30 12 -78 38 -107
57 -67 45 -241 124 -272 124 -29 0 -91 -26 -115 -48 -45 -40 -92 -168 -77
-207 17 -44 92 -36 139 14 16 17 34 31 41 31 30 0 48 -22 54 -65 4 -25 17 -57
30 -71 19 -23 33 -27 101 -34 78 -7 90 -13 413 -175 198 -100 340 -177 352
-192 45 -58 93 -284 95 -449 1 -127 2 -133 28 -163 28 -34 33 -55 41 -167 5
-80 36 -182 72 -237 19 -29 31 -37 54 -37 24 0 33 7 49 37 25 50 31 83 40 208
7 100 10 108 45 160 47 68 46 79 -24 238 -62 141 -69 179 -41 224 17 27 27 33
55 33 46 0 206 -57 546 -193 323 -130 462 -169 528 -149 25 8 57 31 87 63 46
49 47 50 71 34 14 -9 35 -37 47 -63 18 -37 28 -48 50 -50 24 -3 30 2 43 35 27
64 15 154 -32 240 -36 65 -38 74 -27 103 14 37 -4 122 -38 176 -23 38 -93 85
-175 118 -33 13 -77 32 -99 42 -53 24 -171 22 -387 -5 -92 -12 -219 -21 -282
-21 l-114 0 -137 78 c-76 42 -154 91 -174 109 -20 17 -86 100 -146 185 -59 84
-124 169 -143 188 -37 37 -47 62 -238 569 -88 233 -282 785 -332 941 -81 255
-243 739 -288 859 -30 79 -54 148 -54 152 0 5 16 9 35 9 24 0 35 -5 35 -15 0
-21 23 -19 71 6 35 17 45 19 76 8 28 -9 52 -9 105 1 54 9 87 9 159 -1 88 -12
92 -13 112 -46 l20 -34 156 3 c151 3 157 4 196 30 38 27 45 28 156 28 163 0
204 -7 218 -36 15 -34 52 -39 186 -25 66 7 143 15 171 18 l51 5 94 -108 c52
-60 168 -192 258 -294 160 -181 485 -566 611 -725 91 -116 390 -567 441 -666
26 -52 40 -263 17 -271 -8 -3 -67 5 -131 18 -65 13 -148 26 -185 30 -37 3
-137 27 -222 54 -85 26 -178 51 -207 54 -29 4 -85 22 -125 41 -139 65 -248 80
-326 45 -45 -20 -211 -157 -256 -211 -28 -33 -33 -68 -14 -87 20 -20 78 -13
142 17 99 46 156 63 241 68 69 5 87 2 122 -16 42 -21 85 -73 118 -143 9 -21
34 -48 54 -60 32 -20 45 -22 116 -18 133 8 299 2 412 -15 129 -19 506 -93 536
-105 12 -4 54 -39 92 -77 39 -37 102 -88 142 -111 85 -52 89 -56 128 -135 23
-48 39 -66 67 -80 34 -17 41 -17 93 -3 31 8 63 12 71 9 26 -10 44 -60 44 -123
0 -71 17 -86 55 -50 37 35 68 117 73 195 4 60 0 81 -22 136 -14 36 -26 68 -26
71 0 12 226 -53 334 -96 61 -24 146 -56 189 -70 72 -24 147 -60 257 -122 38
-22 53 -25 95 -19 28 3 70 15 93 25 39 18 47 18 71 5 46 -23 101 -91 101 -125
0 -25 4 -30 24 -30 30 0 46 41 46 119 0 134 -71 208 -308 326 l-162 80 38 18
c20 10 49 32 64 49 l27 31 44 -17 c39 -15 95 -48 152 -90 30 -22 47 -5 52 50
7 83 -22 119 -145 182 -57 28 -115 52 -130 52 -15 0 -55 9 -90 19 -58 18 -86
19 -320 14 -297 -6 -264 -11 -611 98 l-233 74 -72 60 c-39 33 -87 72 -107 87
-24 18 -74 88 -144 200 -174 280 -263 398 -500 673 -153 178 -327 395 -515
645 -81 107 -181 236 -223 285 -42 50 -77 95 -77 101 0 5 27 29 60 52 33 24
60 40 60 38 0 -3 -7 -21 -16 -40 -9 -19 -14 -41 -11 -50 9 -22 53 -20 92 4 28
17 37 19 59 9 23 -11 31 -9 69 18 56 40 84 46 97 22 14 -26 37 -24 76 6 24 19
40 23 62 19 21 -4 48 2 88 20 89 39 213 70 267 68 57 -2 68 3 145 67 33 27
114 77 181 111 67 33 125 68 128 76 3 9 35 29 69 45 35 15 86 49 113 74 47 44
52 46 93 40 l43 -6 120 105 c65 59 123 106 127 106 23 0 165 251 234 415 29
68 59 117 126 200 61 76 108 149 152 235 80 156 327 696 371 810 18 47 65 152
104 234 39 82 76 168 82 190 6 23 35 95 64 162 110 248 145 382 170 644 19
206 20 501 1 591 -8 36 -26 94 -41 129 -21 49 -31 98 -41 200 -33 314 -82 453
-263 745 -48 77 -108 174 -134 215 -112 182 -313 412 -509 583 -93 82 -137
159 -148 265 -5 37 -11 78 -15 92 -5 21 -5 22 5 8 6 -10 16 -18 21 -18 13 0
69 122 69 150 0 11 17 39 39 63 50 55 61 77 61 125 0 32 -5 41 -27 52 -27 13
-27 14 -6 18 21 3 22 5 7 27 -32 49 -19 65 116 132 167 84 235 112 495 205
231 83 259 99 296 170 31 61 26 76 -34 103 -116 53 -302 68 -592 45 -66 -5
-200 -12 -297 -16 -156 -6 -178 -5 -178 8 0 9 7 21 15 28 24 20 17 39 -17 48
-27 7 -34 14 -36 38 -3 22 -17 39 -59 69 -30 22 -63 43 -72 46 -10 4 -35 37
-56 74 -48 81 -160 190 -246 238 -182 102 -610 253 -874 308 -160 33 -659 72
-700 54z m2599 -10940 c81 -6 116 -17 116 -37 0 -15 -151 -4 -217 17 -61 18
-71 37 -15 30 20 -2 73 -7 116 -10z m-2289 -883 c46 -34 48 -37 25 -40 -33 -5
-259 20 -240 26 8 3 36 20 63 38 56 38 72 36 152 -24z"/>
</g>
</svg>
